<?xml version="1.0" encoding="utf-8"?>
<!-- Generator: Adobe Illustrator 16.0.3, SVG Export Plug-In . SVG Version: 6.00 Build 0)  -->
<!DOCTYPE svg PUBLIC "-//W3C//DTD SVG 1.1//EN" "http://www.w3.org/Graphics/SVG/1.1/DTD/svg11.dtd">
<svg version="1.1" id="Layer_1" xmlns="http://www.w3.org/2000/svg" xmlns:xlink="http://www.w3.org/1999/xlink" x="0px" y="0px"
	 width="145.837px" height="71.993px" viewBox="13.084 -38.521 145.837 71.993"
	 enable-background="new 13.084 -38.521 145.837 71.993" xml:space="preserve">
<g>
	<path fill="#FFFFFF" d="M132.711-7.705c-3.389-4.495-8.775-7.404-14.838-7.404c-1.428,0-2.803,0.175-4.132,0.478
		c0.062-0.67,0.103-1.344,0.103-2.03c0-12.073-9.789-21.858-21.861-21.858c-7.697,0-14.453,3.988-18.349,10.003
		c-2.104-1.04-4.463-1.636-6.963-1.636c-8.566,0-15.522,6.822-15.771,15.328c-4.706,0.797-8.812,3.359-11.607,6.979
		C70.427-13.288,101.51-13.241,132.711-7.705z"/>
	<path fill="#FFFFFF" d="M47.775,28.175c2.031,0.767,4.232,1.187,6.53,1.187c2.811,0,5.464-0.646,7.853-1.761
		c2.895,3.579,7.318,5.872,12.282,5.872c4.851,0,9.185-2.189,12.082-5.629c2.896,3.438,7.23,5.629,12.082,5.629
		c4.869,0,9.22-2.205,12.119-5.675c2.28,1,4.791,1.563,7.438,1.563c2.22,0,4.349-0.392,6.32-1.109
		C98.893,24.078,73.363,24.054,47.775,28.175z"/>
	<g>
		<g>
			<path fill="#FFFFFF" d="M138.408,32.05c0,0-1.854,0,20.513,0c-0.374-1.628-0.646-1.438-0.931-1.921
				c-2.391-4.019-4.746-8.202-7.197-12.183c-0.573-0.931-0.52-1.667,0.031-2.565c2.438-3.984,4.805-7.576,7.197-11.592
				c0.274-0.463,0.526-1.051,0.84-1.051c-3.778,0-7.557,0-11.336,0c-1.946,8.143-3.926,16.885-5.865,25.4L138.408,32.05z"/>
		</g>
		<g>
			<path fill="#FFFFFF" d="M33.598,32.05c0,0,1.853,0-20.514,0c0.375-1.628,0.648-1.438,0.933-1.921
				c2.39-4.019,4.748-8.202,7.197-12.183c0.573-0.931,0.52-1.667-0.033-2.565c-2.439-3.984-4.805-7.576-7.193-11.592
				c-0.276-0.463-0.532-1.051-0.841-1.051c3.781,0,7.558,0,11.336,0c1.946,8.143,3.926,16.885,5.865,25.4L33.598,32.05z"/>
		</g>
		<g>
			<path fill="#FFFFFF" d="M89.376,4.52c-0.583-0.008-1.124,0.257-1.622,0.797c-1.191,1.303-1.959,3.191-2.299,5.666
				c-0.052,0.373-0.083,0.775-0.089,1.198c-0.024,1.345,0.426,2.022,1.34,2.04c0.39,0.006,0.802-0.155,1.242-0.487
				c0.438-0.33,0.76-0.821,0.97-1.477L90.494,5.5C90.336,4.857,89.963,4.531,89.376,4.52z"/>
			<path fill="#FFFFFF" d="M131.15,8.044c-0.422-0.064-0.89,0.146-1.402,0.632c-1.004,0.959-1.866,2.373-2.593,4.238
				c-0.323,0.854-0.528,1.568-0.614,2.137c-0.152,0.986-0.152,1.648,0.007,1.977c0.151,0.328,0.445,0.527,0.884,0.593
				c0.777,0.118,1.537-0.323,2.288-1.323c0.751-1.001,1.356-2.292,1.819-3.866c-0.415-0.239-0.566-0.699-0.457-1.381
				c0.1-0.679,0.432-1.104,0.982-1.262c0.043-0.587,0.01-1.006-0.105-1.26C131.842,8.268,131.572,8.108,131.15,8.044z"/>
			<path fill="#FFFFFF" d="M26.557-1.608c2.228,9.78,4.401,19.331,6.589,28.935c35.214-7.837,70.267-7.84,105.481,0
				c2.197-9.641,4.375-19.224,6.584-28.939C105.549-10.46,66.108-10.461,26.557-1.608z M93.768,16.291
				c-0.594,0.474-1.276,0.707-2.055,0.692c-0.773-0.011-1.338-0.158-1.691-0.435c-0.646-0.514-1.029-1.152-1.17-1.913
				c-1.153,1.513-2.525,2.255-4.109,2.226c-1.586-0.027-2.652-0.836-3.204-2.422c0-0.003-0.001-0.01-0.003-0.014
				c-1.051,1.609-2.433,2.441-4.157,2.49c-1.648,0.044-2.585-0.805-2.814-2.546c-1.033,1.778-2.374,2.687-4.022,2.731
				c-0.827,0.025-1.537-0.221-2.13-0.727c-0.579-0.505-0.887-1.34-0.917-2.503c-0.015-0.52,0.042-1.126,0.167-1.813l0.733-3.999
				c-0.718,0.36-1.54,0.651-2.463,0.874c-0.04,2.531-0.622,4.597-1.745,6.192c-1.127,1.597-2.547,2.457-4.266,2.575
				c-2.12,0.152-3.542-0.536-4.262-2.059c-0.003-0.007-0.004-0.013-0.008-0.019c-0.99,1.754-2.446,2.73-4.366,2.925
				c-0.726,0.076-1.404-0.115-2.031-0.579c-0.582-0.436-0.939-1.184-1.078-2.235c-0.771,1.412-1.978,2.538-3.628,3.38
				c-0.917,0.469-1.84,0.77-2.769,0.896c-0.027,0.003-0.053,0.008-0.08,0.013c-2.03,0.258-3.593-0.063-4.688-0.97
				c-1.097-0.904-1.801-2.504-2.117-4.796c-0.313-2.293-0.246-4.635,0.2-7.024c0.514-2.818,1.541-5.014,3.083-6.586
				c1.183-1.198,2.62-1.915,4.317-2.146c2.124-0.291,3.62,0.183,4.49,1.418c0.304,0.432,0.501,0.972,0.591,1.625
				c0.229,1.685-0.299,2.618-1.583,2.794c-0.646,0.088-1.193-0.079-1.652-0.5c0.308-0.221,0.552-0.595,0.742-1.123
				c0.187-0.522,0.247-1.029,0.18-1.518c-0.066-0.485-0.25-0.879-0.55-1.178c-0.301-0.3-0.73-0.412-1.289-0.336
				c-0.557,0.075-1.05,0.336-1.475,0.774c-0.425,0.442-0.805,1.009-1.137,1.709c-0.671,1.403-1.14,3.142-1.399,5.214
				c-0.265,2.071-0.283,3.923-0.06,5.552c0.222,1.629,0.621,2.775,1.2,3.438c0.577,0.661,1.447,0.915,2.606,0.755
				c2.243-0.308,3.915-1.433,5.023-3.38c0-0.008,0.001-0.013,0.001-0.021l1.532-14.098l4.019-0.966l-1.64,15.193
				c-0.038,0.339-0.04,0.669-0.007,0.993c0.063,0.617,0.469,0.888,1.212,0.812c0.539-0.055,1.015-0.338,1.428-0.853
				c0.201-0.246,0.367-0.518,0.499-0.812c-0.005-0.049-0.014-0.096-0.019-0.142c-0.045-0.669-0.037-1.347,0.027-2.045
				c0.063-0.694,0.193-1.414,0.383-2.157c0.434-1.686,1.135-3.078,2.105-4.173c1.154-1.312,2.315-2.027,4.057-2.148
				c2.365-0.168,3.566,1.219,3.566,4.159v0.026c0,0.012,0.537,0.012,0.751-0.002c0.496-0.035,1.264-0.239,2.021-0.606
				c0.13-0.064,0.326-0.132,0.454-0.201l0.69-3.569l4.003-0.109l-1.719,9.458c-0.046,0.292-0.063,0.554-0.056,0.787
				c0.021,0.754,0.307,1.126,0.859,1.111c0.971-0.026,1.689-0.862,2.149-2.509l1.633-8.925l3.989-0.108l-1.731,9.458
				c-0.072,0.317-0.103,0.644-0.093,0.978c0.017,0.63,0.404,0.933,1.16,0.916c0.78-0.023,1.386-0.506,1.812-1.445
				c-0.001-0.085-0.006-0.163-0.004-0.244c0.015-0.725,0.089-1.447,0.229-2.171c0.139-0.725,0.345-1.441,0.619-2.158
				c0.604-1.574,1.451-2.873,2.543-3.89c1.089-1.016,2.389-1.513,3.904-1.486c0.79,0.014,1.674,0.158,2.021,0.43
				c0.346,0.271,0.823,0.609,0.823,1.016v0.108l1.148-6.344l3.947-0.481l-3.518,14.893c-0.084,0.278-0.168,0.548-0.172,0.809
				c-0.015,0.737,0.338,1.113,1.096,1.126c0.295,0.006,0.586-0.047,0.887-0.16C94.708,15.114,94.363,15.813,93.768,16.291z
				 M108.111,17.347c-0.801,0.521-1.797,0.742-2.99,0.66c-1.191-0.083-1.979-0.477-2.361-1.178
				c-0.166-0.281-0.229-0.641-0.201-1.076c0.031-0.436,0.185-0.956,0.461-1.56c0.573,0.707,1.146,1.081,1.709,1.119
				c0.974,0.066,1.744-0.448,2.316-1.547c0.467-0.891,0.743-1.965,0.831-3.224c0.161-2.345-0.632-3.578-2.377-3.698
				c-0.403-0.027-0.828-0.026-1.274,0.007l-2.986,10.417l-3.978-0.272l4.948-17.313l4.123-0.262l-1.715,6.036l0.164,0.009
				c1.061,0.071,2.021-0.339,2.883-1.236c0.863-0.899,1.327-1.889,1.4-2.967c0.096-1.349-0.496-2.307-1.769-2.871
				c-0.456-0.194-0.981-0.312-1.582-0.354c-0.596-0.039-1.177-0.019-1.737,0.065c-0.562,0.082-1.101,0.229-1.623,0.438
				c-1.16,0.472-2.105,1.19-2.843,2.156c-0.729,0.964-1.146,2.157-1.249,3.578c-0.046,0.729,0.028,1.298,0.225,1.708
				c0.035,0.074,0.045,0.138,0.041,0.19c-1.459-0.1-2.338-0.611-2.656-1.533c-0.115-0.335-0.156-0.735-0.123-1.2
				c0.068-0.971,0.406-1.871,1.012-2.701c0.607-0.832,1.395-1.557,2.369-2.175c2.163-1.354,4.541-1.94,7.139-1.762
				c1.926,0.133,3.355,0.655,4.297,1.573c0.939,0.918,1.365,1.991,1.283,3.224c-0.057,0.827-0.346,1.62-0.865,2.377
				c-0.521,0.759-1.254,1.364-2.198,1.814c1.099,0.304,1.883,0.875,2.36,1.722c0.476,0.843,0.672,1.831,0.599,2.952
				c-0.046,0.655-0.192,1.438-0.447,2.343C110.725,14.81,109.663,16.322,108.111,17.347z M121.969,9.417
				c-0.504-0.056-0.82-0.207-0.959-0.454c-0.133-0.247-0.203-0.491-0.213-0.733c-0.01-0.241-0.035-0.435-0.074-0.578
				c-0.041-0.149-0.16-0.229-0.348-0.251c-0.375-0.042-0.718,0.005-1.023,0.146c-0.308,0.145-0.664,0.366-1.069,0.677l-3.4,10.194
				l-3.962-0.453l4.489-13.418L119.371,5l-0.547,1.665c0.504-0.349,1.054-0.678,1.646-0.979c0.592-0.307,1.206-0.421,1.846-0.346
				c0.643,0.071,1.1,0.337,1.373,0.794c0.275,0.46,0.391,0.881,0.348,1.266c-0.077,0.662-0.313,1.178-0.719,1.551
				C122.92,9.319,122.467,9.476,121.969,9.417z M136.691,10.031c-0.857,1.206-1.781,1.988-2.762,2.337
				c-0.578,2.563-1.587,4.535-3.029,5.907c-1.439,1.377-3.039,1.928-4.793,1.662c-2.101-0.323-3.334-1.309-3.703-2.952
				c-0.133-0.575-0.146-1.191-0.043-1.854c0.103-0.654,0.254-1.32,0.468-1.983c0.214-0.665,0.495-1.34,0.845-2.025
				c0.787-1.562,1.754-2.77,2.905-3.613c1.417-1.021,2.987-1.402,4.717-1.136c2.155,0.33,3.124,1.736,2.908,4.219
				c0.616-0.042,1.235-0.422,1.856-1.137l0.383-0.446l0.869,0.135L136.691,10.031z"/>
			<path fill="#FFFFFF" d="M62.816,8.002c-0.049-0.692,0.205-1.189,0.761-1.493c-0.076-0.578-0.199-0.986-0.365-1.221
				c-0.165-0.231-0.462-0.333-0.892-0.303c-0.845,0.061-1.59,1.049-2.234,2.97c-0.641,1.92-0.911,3.602-0.809,5.049
				c0.062,0.893,0.183,1.447,0.362,1.673c0.179,0.229,0.36,0.365,0.544,0.417s0.429,0.065,0.737,0.045
				c0.629-0.045,1.214-0.644,1.756-1.792s0.865-2.54,0.967-4.173C63.139,9.084,62.866,8.694,62.816,8.002z"/>
		</g>
	</g>
</g>
</svg>
